<svg version="1.1" xmlns="http://www.w3.org/2000/svg" viewBox="-380.7 -3993.1499999999996 4317.9 4356.849999999999"><desc>Created with Snap</desc><defs></defs><g><rect x="-380.7" y="-3993.1499999999996" width="4317.9" height="4356.849999999999" fill="#4361ee" style=""></rect><g transform="matrix(31.8941,0,0,31.8941,183.5432,-4099.9996)"><path fill="#ffffff" d="M49.997,87.549l-36.819-28.54C6.609,54.122,2.823,46.657,2.823,38.552c0-14.1,11.472-25.57,25.573-25.57  c8.85,0,16.964,4.573,21.601,11.92c4.638-7.347,12.757-11.92,21.614-11.92c14.098,0,25.566,11.471,25.566,25.57  c0,8.111-3.786,15.576-10.388,20.481L49.997,87.549z M28.396,16.981c-11.896,0-21.573,9.676-21.573,21.57  c0,6.828,3.198,13.123,8.773,17.271l34.4,26.665l34.375-26.642c5.608-4.167,8.806-10.462,8.806-17.295  c0-11.894-9.675-21.57-21.566-21.57c-8.586,0-16.35,5.096-19.78,12.983l-1.834,4.216l-1.834-4.216  C44.733,22.078,36.974,16.981,28.396,16.981z" style=""></path><polygon points="41.217,50.026 40.455,52.201 27.673,52.201 27.673,48.643 37.931,48.643 40.816,40.402 48.315,57.197   56.207,32.901 62.359,49.532 72.329,49.532 72.329,53.09 59.881,53.09 56.426,43.747 48.84,67.1 " fill="#ffffff" style=""></polygon><desc>Created with Snap</desc><defs></defs></g><g><g transform="matrix(0.5,0,0,-0.5,0,0)"><path d="M43 -72Q43 -52 47 -14Q18 -8 -12 -3Q-142 18 -146 58Q-147 63 -147 74Q-147 86 -136 99Q-124 113 -114 113Q-103 113 -92 110Q-78 105 -43 88Q-7 72 59 72Q287 1194 502 1835Q377 1793 276 1729Q263 1724 254 1724Q219 1724 219 1761Q219 1791 244 1808Q393 1900 541 1942Q560 1968 580 1968Q601 1968 608 1958Q704 1980 823 1980Q943 1980 1046 1929Q1337 1784 1337 1286Q1337 711 1050 360Q851 118 524 26Q358 -20 156 -20L143 -20Q136 -87 111 -105Q100 -113 82 -113Q43 -113 43 -72ZM1241 1262Q1241 1882 774 1882Q678 1882 600 1862Q427 1320 271 604Q217 357 158 68Q516 68 760 229Q1004 391 1122 662Q1241 933 1241 1262ZM1900 1034Q2089 1034 2089 748Q2089 525 1966 269Q1883 97 1766 21Q1706 -18 1642 -18Q1529 -18 1480 72Q1431 162 1431 266Q1431 452 1493 627Q1556 802 1663 918Q1771 1034 1900 1034ZM1632 703Q1524 487 1524 281Q1524 138 1603 89Q1627 74 1658 74Q1722 74 1801 185Q1880 296 1934 458Q1988 621 1988 737Q1988 854 1974 885Q1961 916 1943 928Q1926 940 1885 940Q1845 940 1797 908Q1704 848 1632 703ZM2312 258Q2312 76 2445 76Q2511 76 2569 140Q2591 165 2610 185Q2629 205 2649 205Q2689 205 2689 170Q2689 106 2607 40Q2525 -25 2421 -25Q2318 -25 2264 51Q2211 128 2211 224Q2211 403 2277 595Q2344 787 2452 917Q2561 1047 2682 1047Q2770 1047 2798 984Q2805 967 2814 940Q2824 914 2836 907Q2844 894 2844 875Q2844 857 2827 841Q2810 825 2789 825Q2746 825 2734 888Q2722 952 2667 952Q2590 952 2507 835Q2425 718 2368 551Q2312 384 2312 258ZM3055 653Q3134 643 3321 635Q3494 896 3764 1404Q3933 1722 3983 1952Q3991 1973 4009 1987Q4027 2001 4044 2001Q4070 2001 4073 1970Q4089 1954 4087 1934Q4086 1914 4075 1903Q4052 1822 4042 1733Q4033 1645 4003 1406Q3974 1167 3974 1004Q3974 841 3999 608Q4122 595 4132 581Q4142 567 4142 550Q4142 533 4123 515Q4105 498 4083 499Q4062 501 4046 503Q4030 506 4013 508L4013 498Q4013 492 4016 467Q4020 442 4020 398Q4021 354 4024 319Q4028 285 4036 248Q4044 211 4059 141Q4075 72 4075 50Q4075 28 4058 11Q4042 -6 4021 -6Q4001 -6 3986 23Q3971 53 3961 99Q3951 145 3944 202Q3938 259 3933 314Q3928 370 3924 417Q3921 465 3917 492L3911 520Q3775 534 3636 536Q3497 538 3358 541Q3094 141 2860 35Q2782 -4 2738 -4Q2684 -4 2684 47Q2684 73 2702 92Q2720 111 2739 111Q2759 111 2770 94L2772 96Q2986 179 3176 432Q3205 472 3223 495Q3241 518 3258 543Q3103 551 3026 559Q2998 570 2998 592Q2998 614 3015 632Q3033 650 3055 653ZM3901 618Q3884 752 3884 981Q3884 1211 3927 1538Q3806 1287 3658 1029Q3511 772 3422 633Q3542 631 3662 629Q3783 628 3901 618ZM4669 956Q4569 956 4569 840Q4569 763 4605 681Q4641 599 4666 550Q4763 357 4763 254Q4763 152 4701 80Q4639 8 4522 -6L4509 -6Q4396 -6 4345 133Q4343 138 4343 142L4343 152Q4343 173 4356 186Q4369 200 4384 203L4395 203Q4415 203 4427 187Q4440 171 4451 151Q4462 132 4475 116Q4488 100 4520 100Q4588 100 4628 142Q4669 185 4669 237Q4669 289 4654 334Q4629 411 4568 526Q4466 715 4466 820Q4466 925 4519 992Q4572 1059 4669 1059Q4729 1059 4772 1034Q4853 987 4853 928Q4853 870 4804 870Q4786 870 4774 883Q4763 897 4750 913Q4715 956 4669 956ZM5302 956Q5202 956 5202 840Q5202 763 5238 681Q5274 599 5299 550Q5396 357 5396 254Q5396 152 5334 80Q5272 8 5155 -6L5142 -6Q5029 -6 4978 133Q4976 138 4976 142L4976 152Q4976 173 4989 186Q5002 200 5017 203L5028 203Q5048 203 5060 187Q5073 171 5084 151Q5095 132 5108 116Q5121 100 5153 100Q5221 100 5261 142Q5302 185 5302 237Q5302 289 5287 334Q5262 411 5201 526Q5099 715 5099 820Q5099 925 5152 992Q5205 1059 5302 1059Q5362 1059 5405 1034Q5486 987 5486 928Q5486 870 5437 870Q5419 870 5407 883Q5396 897 5383 913Q5348 956 5302 956ZM5931 1376Q5990 1376 5990 1317Q5990 1231 5930 1220Q5913 1217 5893 1217Q5873 1217 5853 1237Q5833 1257 5833 1288Q5833 1320 5864 1348Q5895 1376 5931 1376ZM5790 909L5790 929Q5790 943 5775 997Q5775 1022 5792 1042Q5809 1063 5833 1063Q5858 1063 5874 1032Q5890 1001 5890 964Q5890 927 5796 522Q5702 117 5702 95Q5702 74 5722 74Q5735 74 5759 99Q5783 125 5800 125Q5833 125 5833 83Q5833 42 5771 11Q5709 -20 5681 -20Q5611 -20 5611 92Q5611 115 5620 143Q5630 172 5640 222Q5651 273 5670 360Q5690 447 5710 540Q5731 633 5760 765Q5790 898 5790 909ZM6373 956Q6273 956 6273 840Q6273 763 6309 681Q6345 599 6370 550Q6467 357 6467 254Q6467 152 6405 80Q6343 8 6226 -6L6213 -6Q6100 -6 6049 133Q6047 138 6047 142L6047 152Q6047 173 6060 186Q6073 200 6088 203L6099 203Q6119 203 6131 187Q6144 171 6155 151Q6166 132 6179 116Q6192 100 6224 100Q6292 100 6332 142Q6373 185 6373 237Q6373 289 6358 334Q6333 411 6272 526Q6170 715 6170 820Q6170 925 6223 992Q6276 1059 6373 1059Q6433 1059 6476 1034Q6557 987 6557 928Q6557 870 6508 870Q6490 870 6478 883Q6467 897 6454 913Q6419 956 6373 956ZM6891 942Q6806 942 6744 932Q6703 936 6703 967Q6703 985 6718 1004Q6733 1023 6758 1026L6906 1022Q6910 1043 6914 1072Q6919 1102 6930 1158Q6942 1215 6962 1261Q6983 1307 7016 1307Q7049 1307 7049 1270L7049 1257Q7020 1133 7000 1024L7147 1024Q7225 1024 7242 1012Q7260 1000 7260 982Q7260 947 7217 936Q7195 930 7128 930Q7062 930 6984 936Q6965 836 6899 562Q6834 288 6834 208Q6834 129 6852 104Q6865 88 6896 88Q6927 88 6949 106Q6971 124 6989 145Q7007 167 7024 185Q7042 203 7063 203Q7104 203 7104 162Q7104 141 7062 92Q7021 44 6986 18Q6951 -8 6884 -8Q6817 -8 6792 15Q6740 61 6740 162Q6740 214 6752 285L6771 401Q6790 487 6805 551Q6820 616 6831 665Q6842 714 6860 792Q6878 871 6891 942Z" fill="#ffffff" style=""></path></g></g></g></svg>